<svg xmlns="http://www.w3.org/2000/svg" viewBox="0 0 120.9 120.8" width="512" height="512">
  <circle cx="60.5" cy="60.5" r="60.2" fill="#fff"/>
  <linearGradient id="treegrad" x1="110.3" x2="110.3" y1="151.9" y2="31.3" gradientUnits="userSpaceOnUse">
    <stop offset="0" stop-color="#3c7536"/>
    <stop offset="1" stop-color="#9dd115"/>
  </linearGradient>
  <g fill="url(#treegrad)">
    <path d="M105 55.1h-.4c-.5-.2-.9-.7-.9-1.2V21.4c0-.5.2-.9.7-1l.4-.2c.3 0 .7.2.9.5a58.8 58.8 0 0 1 11.2 18.5c.1.4 0 .8-.2 1.2l-10.8 14.3c-.3.3-.6.4-1 .4z"/>
    <path d="M65.1 120.6c-.3 0-.6-.1-.8-.3-.3-.2-.4-.6-.4-.9-.6-23.3-2.7-64.5-9.9-80.3v-.7c1.8-10.6 2.9-20.4 2.9-27.7V1.5c0-.6.5-1.1 1.1-1.2a60.8 60.8 0 0 1 13.2 1c.6 0 1 .5 1 1.1V30a583 583 0 0 0 7.1 86.7c.1.6-.3 1.2-.8 1.4a59.5 59.5 0 0 1-13.3 2.5z"/>
    <path d="M87.3 114.4c-.2 0-.3 0-.5-.2-.4-.1-.6-.5-.6-.8A553.2 553.2 0 0 1 80.7 62c2.6-18.1 8-29.6 13.5-39.4a1.2 1.2 0 0 1 1.4-.5c.5.1.9.6.9 1.1v85c0 .4-.2.8-.5 1a62 62 0 0 1-8.7 5z"/>
    <path d="M32.6 87.3c-.3 0-.6-.2-.9-.4a78 78 0 0 1-13.2-22.5V18c0-.4 0-.7.3-1a1.2 1.2 0 0 1 1.1-.2c.4 0 .8.4 1 .8l5.8 20c4.6 15.7 7 32 7.1 48.5 0 .5-.3 1-.7 1l-.5.2z"/>
    <path d="M80.7 31.9h-.3c-.5-.2-.9-.7-.9-1.2V5c0-.4.2-.8.5-1l.7-.2.4.1c3.9 1.4 7.7 3.2 11.2 5.4.5.3.7 1 .4 1.6L91.4 13c-3 5.1-6.5 11-9.6 18-.2.5-.6.8-1.1.8z"/>
    <path d="M104.8 100.9l-.5-.1c-.4-.2-.7-.6-.7-1.1v-30c0-.3 0-.6.2-.8L118 50.5a1.2 1.2 0 0 1 1.2-.4c.5.1.8.5.9 1a61.4 61.4 0 0 1-14.4 49.4c-.3.2-.6.4-1 .4z"/>
    <path d="M10 92.4c-.4 0-.7-.2-1-.5A60.3 60.3 0 0 1 9 29.4a1.2 1.2 0 0 1 2.2.6l.1 61.3c0 .5-.3 1-.8 1.1H10z"/>
    <path d="M32.6 113.8l-.6-.1A60.5 60.5 0 0 1 19 104c-.3-.2-.4-.5-.4-.9v-18a1.2 1.2 0 0 1 2.2-.7 46 46 0 0 0 12.6 13.2c.3.2.5.6.5 1v13.9c0 .4-.2.8-.6 1l-.6.2z"/>
    <path d="M40.2 61c-.6-.1-1-.5-1.1-1-1.3-8.3-3-16.5-5.4-24.5l-7-23.8c-.1-.5 0-1 .5-1.4a59.8 59.8 0 0 1 21.2-8.8l.7.3c.3.3.5.6.5 1v7.9c0 13-3.3 32.8-8.2 49.4-.2.5-.6.8-1.2.8z"/>
    <path d="M55.2 120.5c-4.5-.4-9-1.3-13.3-2.7-.5-.1-.9-.6-.9-1.1l.1-29.7a186.4 186.4 0 0 0 0-5.6c3-5.7 5.8-13.5 8.3-22.8.2-.5.6-.9 1.2-.9s1 .5 1.1 1c3.4 20 4.5 49 4.8 60.6 0 .4-.1.7-.4 1l-.8.2z"/>
  </g>
</svg>
