<svg xmlns="http://www.w3.org/2000/svg" viewBox="0 0 185.9 652.1" preserveAspectRatio="none">
  <path fill="#9ec33e" d="M60.2 51.7c5.4 0 9.6.5 13.3 1.6C72 76 69 99 66 121.2c-2.5 18.4-5 37.5-6.8 56.6l-.8 10.2v.4l.2.3c5.8 8.3 12.7 16.2 19.3 23.8 3.9 4.4 7.8 9 11.6 13.6 2 2.6 4.6 5.3 7.3 8.1 3 3.4 6.3 6.8 9 10.3l1.8 2.3v-3c.3-74 3.6-134.6 10.3-190.6l5.2-.2a227.3 227.3 0 0 1 14.6.5c2.2 42.7-1.3 86.7-4.8 129.2l-.5 6.5c-2 25.3-3.1 52.1-3.2 82a29.5 29.5 0 0 1-9.4.4l-2.4-.8-2.3-.8c-.7-.2-1.3-.2-1.8-.2-.7 0-1.3.1-1.9.4l-.8.5.4.9c.5.8 1.6 1.5 3.5 2.1a32.9 32.9 0 0 0 14.7 1c0 14.3.1 29.3.6 45.8h-.4c-1.3 0-2.7.5-4 1-1 .3-2 .7-2.8.8l-2.6.2h-2a66 66 0 0 0-3.2 0h-.7l-.2.6c-.2.7-.1 1.4.3 2 1.9 2.6 9.4 3.3 10.4 3.3 2 0 3.9-.9 5.3-2a4813 4813 0 0 0 3 76.6 3410 3410 0 0 1 3.5 108.7 22.5 22.5 0 0 0-6.3.6h-.5l-2.7.3-2.4-.1-2.6-.1c-2.2 0-3.9.7-4.4 2-.2.6-.4 1.9 1.2 3.4 1 1 2.5 1.5 3.9 2l1.9.8a30 30 0 0 0 11.2 3h.8c.2 47.8-2 87.7-6.6 125.3a51.7 51.7 0 0 1-15.6 1.7c-6.6-20.4-4.8-49-3.2-74.2.7-10.7 1.3-20.8 1.3-29.7 0-43.6-1-86.7-2.1-134.5h1c2.7 0 5.3-.3 7.8-.7l1.6-.2h.7l.1-.9c.2-1.4 0-2.7-.4-4l-.1-.3-.3-.2c-2.4-1.7-6.6-1.8-10.6-1.8v-2c-1-35.2-1.9-71.5-2.3-107.4-2.4-18.5-13-33-24.3-48.4l-5-7c-1.8-2.6-4.3-5.7-7.1-9.3-4-5-8.6-10.8-12.9-17l-1.7-2.4-.1 3a1191 1191 0 0 0-1.3 50.3 59.3 59.3 0 0 0-5.4 3 43.1 43.1 0 0 1-12.1 2.7c-3.4.4-7 .7-7.5 2.7-.4 1.6 1.3 3 2.6 4 2.7 2 7.4 2.2 10 2.2 3.7 0 7.5-.6 9.8-1.6l2.5-1.3c0 24.5.6 49.3 1 73.3.6 25 1.1 50.9 1.1 76.6 0 27 3.3 53.8 6.6 76.5a62 62 0 0 1-11.2 1.6c-6.4.3-9.1.7-9.4 2.5-.2 1.4 1.6 2.3 3.5 3.2 3 1.2 6.8 2 11 2 2.4 0 5-.3 7.4-.8a3204.3 3204.3 0 0 0 5 33.2c-2 1.2-4.6 2-7.8 2.5l-6.3.3h-2l-2.4-.3-4.9-.4c-1.2 0-1.3.7-1.3 1-.1 1.3.3 2.4 1.2 3.3 2.5 2.6 8 2.8 9.6 2.8h1.2a36 36 0 0 0 12.8-3.2l.6-.3h.1c4.5 30.6 8.2 63.6 6.1 97.2-8.7-2.7-18.7-2.9-28.4-3-8.1-.2-16.5-.3-23.8-2 .6-15-1.2-30.4-3-45.4-1.1-9.3-2.3-18.9-2.8-28.1A6064 6064 0 0 0 9 430.3L4.5 369c-5.2-69.6-3.4-137.3 5-190.5 2.1-12.8 4.8-26 7.5-38.8 5.9-29 12-58.7 11.4-88 3 .6 6.3.9 10.3.9 3.5 0 7.2-.2 10.8-.5 3.6-.2 7.3-.4 10.8-.4m-22 292c3.5 0 6-.2 7.9-.8 2.1-.6 3-1.2 3.3-3.8.2-3.6-1.6-4.3-2.7-4.5h-.3c-.7 0-1.6.3-2.5.7l-1.4.5-3.5.3c-1 0-2 0-3 .2-.1 0-6.8 1-7.4 3.8-.2.8 0 1.8 1.5 2.9.7.5 2.5.7 6.4.8h1.8m7 40c-1 1.1-3.6 1.8-7 1.8-2 0-3.7-.2-4.3-.3-.7-.1-1.5-.4-2.4-.8-1.4-.5-2.8-1-4.1-1-.7 0-1.4.2-1.9.5l-.9.4.5 1c1.4 2.4 8.7 3.6 13.3 3.6 2.8 0 6.5-.4 8.2-2.2.7-.6 1-1.5 1-2.4v-.5l1.5-2.3-3.2 1.5c-.3.2-.6.4-.7.7m-6.2 73.9c2.6 0 5.2-.4 7.7-.7l1.5-.2.8-.1.1-.8c.2-1.4 0-2.8-.4-4l-.1-.4-.3-.1c-2.5-1.8-6.7-1.8-10.9-1.8-2.8 0-5.6 0-7.5-.7h-.6c-1.9.7-2.1 1.9-2.1 2.5.1 2.7 5.4 5.3 6.6 5.7 1.6.4 3.3.6 5.2.6m18.7 119.8h1.1c2.5-.3 5.8-2.1 7.3-4 1.6-2 2-3.8 1.5-5.1-.4-1-1.5-2-4.5-2h-.4c-4.5 0-11.4 2.2-13.5 5.2a3.2 3.2 0 0 0-.5 3c1 2.9 8.2 3 9 3M27.3 50.4c1 42.6-12.2 86-18.8 127.9-9.6 60-9.6 130-5 190.7 5 66.5 11 133.1 14.7 199 1.4 24.6 7 49.9 5.7 74.3 16.8 4.1 38 0 54.2 5.6A471 471 0 0 0 72 548l-2 .8a34.8 34.8 0 0 1-13.5 3.1c-3.6 0-10-.9-9.9-5h.4c1.5 0 6.5.6 7.3.6h2c2.1 0 4.3 0 6.4-.3 3.1-.4 6.3-1.3 8.8-3L66 509.3c-2.6.6-5.5 1-8.3 1-3.7 0-7.4-.6-10.5-2-8.8-3.6 4.6-3.5 7.5-3.8 3.4-.3 6.8-.7 10-1.6l.3-.1a533 533 0 0 1-6.7-77.3c0-51.2-2.1-101.3-2.1-151.7a25 25 0 0 1-4 2.3c-2 .9-5.8 1.5-9.4 1.5-3.7 0-7.4-.6-9.4-2-6-4.5 2-4.6 6-5 3.4-.5 7.7-1.4 10.9-2.8 1.3-.5 3.6-2.1 6-3.2 0-17 .4-34 1.3-51 7.2 10.5 15.5 20 20 26.3 12.5 17.6 26.3 34 29 54.9.5 36.8 1.5 73.6 2.4 110.3 4.2 0 8.6 0 11 1.7.4 1.1.6 2.3.4 3.6-2.9.3-6 .9-9.1.9l-2.2-.1c1.1 45.4 2.2 90.7 2.2 135.5 0 30.7-7.5 75.8 2 104.9h3c4.8 0 10-.5 14.4-1.9 5.3-42.1 6.9-84.6 6.7-127a23 23 0 0 1-3.4 0c-3-.5-6.5-1.6-9.2-3-1.7-.8-4.1-1.3-5.6-2.6-2.3-2.2-.2-3.7 2.5-3.7l5 .2c1 0 1.9 0 3-.2 1.7-.3 3.8-.7 5.7-.7l1.9.1c-.7-62.8-5-126-6.6-189a7.8 7.8 0 0 1-6.3 3.6c-1.7 0-10.6-1.2-9.7-4h1.2l4 .1c.8 0 1.8 0 2.7-.2 2-.3 4.7-1.8 6.6-1.8.7 0 1.2.1 1.4.4-.4-16.2-.6-32.4-.6-48.5-1.5.6-3.6.8-5.9.8-3.3 0-7-.5-9.5-1.4-1.4-.5-2.5-1-2.8-1.7.4-.2.8-.3 1.3-.3s1 0 1.6.2c1.6.4 3.4 1.3 4.7 1.5 1.2.2 2.8.4 4.5.4a16 16 0 0 0 6.1-1c0-27.6 1-55.1 3.2-82.6 3.6-44.8 7.7-91.5 5.3-136.7-5.1-.2-10.7-.6-15.6-.6-2.2 0-4.3 0-6.1.3a1655 1655 0 0 0-10.3 191.6c-5.2-6.5-12-12.9-16.5-18.5-10-12.4-21.6-24.3-30.8-37.3l.8-10.2C64 135.6 71.7 94.7 74.6 52.6a47 47 0 0 0-14.3-1.9c-7.2 0-14.7.9-21.7.9-4 0-7.7-.3-11.3-1.1zm11 292.3h-1.5c-1.2 0-5.3-.1-6.2-.7-4-2.7 4-4.6 5.5-4.8 2.1-.3 4.4-.2 6.5-.5 1-.2 2.9-1.2 3.8-1.2h.1c1.8.2 2 2 1.9 3.4-.2 2.2-.8 2.4-2.6 3-2.2.6-5 .8-7.5.8zm0 43.8c3 0 6.5-.5 8-2.4l.1-.2-.1.2.4.3c0 2.5-3.8 3.5-8.2 3.5-5.3 0-11.4-1.4-12.4-3.2.4-.2.9-.3 1.4-.3 2 0 4.5 1.5 6.3 1.8 1.1.1 2.7.3 4.4.3zm.8 70c-1.7 0-3.3 0-5-.5-1.8-.5-8.8-4.7-4.3-6.2 4.8 1.5 14.2-.4 18 2.3.5 1.1.6 2.3.4 3.6-2.9.3-6 .9-9.1.9zm18.7 120c-2.6 0-7.5-.6-8-2.3-1.3-3.4 7.6-7 13-7h.4c3.4.1 5.2 1.7 2.2 5.6a11.6 11.6 0 0 1-6.6 3.6h-1zM173.4 1.5c1.6 0 2.6.8 3.1 2.5 3 9.4 2.5 21.3 2 32.8-.2 4.2-.4 8.1-.4 11.9 0 13 1.4 26 2.8 38.7 1.1 10.2 2.3 20.7 2.6 31.1 2.2 61.1 0 123.6-2.3 184L180 336h-.2c-.3-.2-.6-.3-1-.3-1 0-2 .6-3 1-.6.4-1.3.8-1.7.8H171l-.9-.2h-.7c-.7-.2-1.5-.3-2.2-.3-.7 0-1.1.1-1.5.3-1 .5-1.2 1.1-1.2 1.5 0 .5.3 1.3 1.7 2 1.2.6 2.5.6 3.7.7h1.2l1.7.3c.7.1 1.5.3 2.3.3h1c1.6 0 2.8-.2 3.8-.8A2739 2739 0 0 0 178 472c-1.5.4-3.1 1.9-4.7 3.2l-1.7 1.5a4 4 0 0 1-1.6.3c-.7 0-1.4-.2-2-.5l-.4-.2c-.3-.3-.8-.7-1.6-.7-.2 0-.6 0-.9.2-1.5.6-1.6 1.6-1.6 2.1 0 2 3.1 3.3 3.7 3.5a16 16 0 0 0 6 .6 12 12 0 0 0 4.8-2v94c0 5.2.4 11.3 1 17.6 1 13 2.1 27.7-1 38-2 6.5-4.5 7.8-8.1 7.8a41 41 0 0 1-6-.7c-2.8-.4-6-1-9.8-1-.7-15 .3-30.2 1.3-44.8.5-6.6 1-13.3 1.3-20 2.2-48.8 2.3-98.5 2.3-146.6 0-43 0-87.3 1.7-130.9.7-18.8.5-38 .3-56.4-.3-25.4-.6-51.5 1.4-77l.9-10.1c1.4-17.3 3-35.2 1.4-53a219 219 0 0 0-5.1-28.4c-1.8-7.8-3.6-15.8-4.6-23.8l-.5-3.3-.7-6c-.7-5.7-1.2-13 .6-19 1-3.4 12.6-14.8 18.9-14.8m.9 262.6c1.7 0 4.8-.1 6-1.1 1.1-.9 1.1-1.7 1-2.2-.4-1-1.6-1.6-6-1.6-2.4 0-4.8.2-6 .3h-.5c-.7 0-1.2 0-1.8-.2l-2-.2H164l-.1.8a2 2 0 0 0 .4 1.8c2 2.4 9.3 2.4 10 2.4m-9 92.2c-1.8.2-3.5 1.2-4.2 2.5-.5 1.1-.4 2.3.2 3.4 1.3 2 2.8 2.4 3.8 2.4.9 0 1.8-.2 2.7-.8l.7-.3c1-.5 2.3-1.1 2.7-2.7.4-1.2.3-2.8-2-4-.7-.3-1.8-.7-2.8-.7a3 3 0 0 0-1 .2m4.7 56.5c2 0 3.2-.4 3.9-1.2.3-.4.6-1 .5-2l-.2-.7-.6-.1-.7-.1c-.8 0-1.5.2-2.3.4l-1.2.3-.7.1c-1 0-2.2-.3-3.3-.6-1-.3-2-.6-3-.7a2 2 0 0 0-.9-.2c-.5 0-1 .3-1.3.8-.3.7-.1 1.5.5 2.2 1.2 1.4 3 1.4 4.3 1.4l1.5.2 3.5.2m5.4 118.6c-1.9.8-4.2 1-6.4 1.2h-.6a7 7 0 0 1-.5 0h-2.1c-.7 0-1.3 0-1.8.2l-.9.2.2 1c.4 1.8 3.2 1.8 4.5 1.8h2.1l2.7.2c1.1 0 2-.1 3-.4.6-.3 1.8-.7 2.2-1.7.3-.7.3-1.5-.1-2s-.9-.8-1.4-.8c-.3 0-.6 0-1 .3M173.5.5c-6.7 0-18.7 11.5-19.9 15.4a50.4 50.4 0 0 0-.7 19.4l1.2 9.4c2.3 17.4 8.2 34.7 9.7 52.2 1.9 21-.6 42-2.2 62.8-3.5 44.3-.1 89.1-1.7 133.5-3.4 92.4.2 185.2-4 277.5-1 22-3.7 43.7-2.6 65.9h.5c6.9 0 12.2 1.6 16.3 1.6 4.1 0 7-1.7 9-8.5 4.7-15.5 0-39.6 0-55.9.2-32 .2-64.2.1-96.3a10.3 10.3 0 0 1-7.3 3.5c-1.4 0-3-.3-4.2-.7-1.2-.4-4.8-2.5-2-3.7l.6-.1c.6 0 .9.5 1.5.8a5.5 5.5 0 0 0 4.4.2c1.2-.6 4.7-4.7 6.6-4.7l.4.1v-36.5c-.2-105.7 9.2-212.3 5.4-317.9-.8-23.4-5.5-46.3-5.4-69.8 0-14.1 2.6-32-1.6-45-.7-2.3-2.2-3.2-4.1-3.2zm.9 262.6c-4.5 0-10-1-9.6-3h.3c1.3 0 2.4.4 3.8.4h.5c.6 0 3.3-.3 6-.3 3.3 0 6.4.4 4.4 2-.7.6-3 1-5.4 1zm-1.1 75.6h1c1.3-.2 3.2-1.9 4.6-1.9l.6.1c1.5.7 1.4 2.5.3 3.4-1 .8-2.4 1-3.7 1h-.9c-1.3-.1-2.6-.6-4-.7-1.4-.1-3.1 0-4.5-.6-1-.5-1.6-1.2-.5-1.7.2-.2.6-.2 1-.2 1 0 2.3.2 2.9.3 1 .1 2.1.3 3.2.3zm-8.2 25c-1.1 0-2.1-.7-2.9-2-1.4-2.3 1-4.3 3.4-4.4l.8-.2c.8 0 1.6.3 2.3.6 1.2.6 2 1.4 1.6 2.9-.4 1.3-1.9 1.7-3 2.4-.8.4-1.5.6-2.2.6zm5 48.1c-1.9 0-4-.4-5-.4-1.3 0-2.7 0-3.6-1-.5-.7-.4-1.4.1-1.4.2 0 .4 0 .7.2 2 0 4.2 1.3 6.5 1.3h.9c1-.2 2.2-.8 3.3-.8h.5c.3 1.7-1.4 2.1-3.4 2.1zm-2 121.8h.4c2.5-.2 5.2-.3 7.5-1.4l.4-.1c.5 0 .9.8.6 1.4-.2.6-1.2 1-1.7 1.1a8 8 0 0 1-2.6.4 26.3 26.3 0 0 1-3.2-.2H168c-1.6 0-3.4 0-3.6-1a5 5 0 0 1 1.5-.3l2.1.1z" class="st0"/>
</svg>
