<svg xmlns="http://www.w3.org/2000/svg" viewBox="0 0 676.9 637.7" width="677" height="638">
  <path fill="white" d="M315 50.3c-4.5 20.8-12.9 40.9-17.2 61.6-5.3 26-8 54-11.4 80.4-4.1 31-4.5 62.4-5.8 93.6-.6 13.2-1 26.5-1.2 39.8a822.9 822.9 0 0 0-18.5 38.1l-4 8.5V366c0-46 .7-92-3.8-137.3-1.2-12.3-2.7-24.4-4.3-36.6-2.7 6-17.9 3-21.7 2-.3-.7-1.2-1.2-2.1-1.9-.3-1-.1-2.3.3-3.2 4.3-.4 8 2.5 12.2 3 4 .4 7.5-1.1 11-2-2.8-21.9-6-43.6-8-65.6-2-21.5-6.3-42.8-6.9-64.4-.1-6.8 5-25.4 2.6-30.6-2.4-5.1-18.2-4.6-24-4.6-6.3-.1-8.9 4-9.7 9.6-1.3 9 2 21.9 2.3 28 .8 23 2 46 3.3 69 2.4 45.3 5 90.7 5 136.1 0 43.5 3.6 86.4 3.6 129.5 0 46.4-5.2 92.4-7.3 138.6-1.1 26.1 2.9 63.7-7.2 87.5 16.4.9 30.4-2 45.3-3.6 4.2-74.4 8.3-148.7 9.2-223.8 4-9 8.2-17.8 11-26.5 2.5-7.3 7-15.2 11.3-23.3l-.2 29.6c0 38.1-2 74-5.6 111.8-4.3 45.9-3.4 102.6-23.6 143.6-.1.3 15 2.3 17.2 1.1 5.3-2.8 5.3-7 6.9-12 3.6-11.5 4.1-23.1 6-34.9 2.6-15.5 4.6-31 7.4-46.5 2.5-14.2 4-28.5 5-42.8-1.3 1.4-4.6 1.2-6.3 1.2-2 0-6.5.5-7.8-1.1-.7-.8-.5-2.4 0-2.9 1.8-1.4 5.4 1.3 7.6.8 2.9-.5 5.9-2.2 7-5 .8-15.6 1-31.3 1-46.9 0-31.3 2.5-61.8 4-93 2-46.7 2.7-92.5 6.8-138.9 3-34.5 2.5-68 10.5-100.4 7.4-29.8 16.5-59.6 26-89.1-23 3.2-21 7-26 29.7zm-63.6 225.8c2 2.5.8 6.7-1.9 8.2-3 1.6-13.5.6-14.1-2.2-1.4-6.2 12.4-10.5 16-6zm-34.2 78.4c-1.2-1.5-1.3-5.2.7-4.4 4.8 2.7 9.3 3.5 14.7 2.3-.9 3.3-7 3.8-10 3.6-1.8 0-4.2 0-5.4-1.5zm16 142.2c-2.3.2-9.2-2-10.4-4.2-1.8-3 .8-4.5 3.8-5 2-.4 4.2-.4 5.3 0 5.6 1.2 9.1 8.5 1.3 9.2zm17.3-57c-3.6 1.9-22.5 0-22.2-4.8 0 .3 11.7.1 13-.2l2.5-.6c2.6-.8 5.7-1.6 7.8-.4 2.3 1.4.9 5-1.1 6zm37.3 4.8c-1.9.7-6 1-6.6-1.3-1.2-4.2 6.4-5.3 8.2-2.3.8 1.5-.1 3-1.6 3.6zm1.1-87.8c-2.2.2-4-.4-6-.7-.5-.1-.2-.7.2-1.2.3-.5.7-.9.9-1 .7-.3 2.3-.2 3.2-.5 1.6-.5 3.5-1.6 5.3-1.8 6.8-.6.6 4.7-3.6 5.2zm13-142c-.7 3.4-8.9 2.8-11.2 2.6-.3-2.6 4.7-4 6.5-4.8 2.5-1 5.4-1.5 4.7 2.2zm-8.6-24.7c-1.4-.9-2.1-3.1.2-3.6.9-.1 2 .6 3 .5 2-.1 7.3-2.9 8.4-.5 3.2 6.8-8.5 5.6-11.6 3.6zM418 22.1c-4.3 15.2-6.6 29.6-13.7 44.6-7.5 16.2-18 29.4-27.6 44.2a229.6 229.6 0 0 0-34.5 97.2c-7.2 57.7 13.5 112.8 19.2 169.2 4.6 45.5 2 91.8-3.2 137a596.2 596.2 0 0 0-3.6 56.1c-.1 4.8-9.3 61.8-13.2 59.2 17.1 11.4 41 8.3 43.9-13.1 4.2-30.9 11.4-62.1 13.7-93.4 3.9-51.7-5-103.6-3.3-155 1.6-48.8-22-95.1-19.5-144.4 2-40.1 20.5-72.8 37.4-106.9 6.7-13.5 15.7-25.8 22.2-39.5 8-16.8 12-37.8 17.9-55.2-11.4-4.1-24.2 0-35.7 0zm-67.4 230.3c7 2.3 14.8.4 22.2 0 2.9-.6 3 3.7 1 6.1-1.8 2.2-5 2-8.1 1.7-5.1-.5-15.4-.5-15-7.8zM371 520.5c-2 0-5.1 0-6.5-1.8-3.3-4 3.6-7.4 6.8-6.1 2.3.2 3.7-.5 5.4 1.1 3.9 4-2.3 7-5.7 6.8zm25.8-36.6c.4-.4.9-.5 1.5-.1 0 2.4-3.3 3.5-5.4 4-1.8.6-3.9 1-5.9.8-1.1-.2-4.7-.6-5.1-1.7 1.6-.4 3.8.7 5.7.5 2.8-.2 7.8-.8 9.2-3.5zm-8-54.6c1.2-.3 2.2-1.2 3.4-1.3 1.5-.9 3.2 1.2 2.1 3.5-2.6 5.4-9.8 1.8-13.7.3-1-.4-4.9-1-5.2-1.7-1-2 1.5-1.4 2.4-1.1a22.1 22.1 0 0 0 11 .3zM376 381.6c.9-1 4.3-.3 5.3.4 2 1.4.5 2.9-.7 4-1 1.1-1.9 2.7-3.6 3-2 .3-5.3-1.1-6.9-2.1-.2-2.8 2.6-7 6-5.3zm-14.4-193c1-2.6 15-4.8 16.3-2.3 2 4.1-14.1 3.4-16.3 2.3zM489 23.5l-.2.2c-2.8 3.4-2.7 9.4-3 13.5-.9 10.1 1 20.3 1 30.4 0 20.6-.4 43.7-2.9 64.1-3.5 28.3-8 55.3-9.4 83.8-1.8 35.6-5.6 70.5-5.6 106.9 0 59.7.8 121 1.4 181.6.2 19 2.6 37.2-1 56-4.2 22.7-9.6 44.7-8.4 67.9 3.3.1 8.6-.4 12-1.4-.9-37.4 13.5-72.9 15.2-109.6 1.6-33 .2-67.6-1.3-100-2.6-51.4.4-102 4-152.3-1.1 4.2-11.1 2.7-13.3.2.8-.9 5 .6 6.3.6 1.6 0 6.1-.6 6.3-2.4-.2 0 .2-.2.7 0v.4c2.4-32.7 5-65.5 6.6-98.4 2.3-48.4 10.7-96.4 8.3-145.4-.1-3.3-14.8 1.7-16.8 4zm-9.3 298.9c1.3 1.3 0 2.9-1.3 3.3-1.8.5-5.3.1-7-.6-3-1.2-1.7-6.4 1.7-6 1.3-.1 1.5.9 2.4 2.1 1.2.3 3.4.3 4.2 1.2zM114.3 244.5c1.6.4 3.4 1.3 4.7 1.5 2.6.4 7.5.7 10.6-.6 0-27.6 1-55.1 3.2-82.6 3.6-44.8 7.7-91.5 5.2-136.7-7.4-.3-16-1-21.6-.3A1655 1655 0 0 0 106 217.4c-5.1-6.5-11.9-12.9-16.4-18.5-10-12.4-21.6-24.3-30.8-37.3l.8-10.2c3.8-42.3 11.6-83.3 14.5-125.3-14.6-4.7-32.9 1.3-47.3-2.1 1 42.6-12.2 86-18.8 127.9-9.6 60-9.6 130-5 190.7 5 66.5 11 133.1 14.7 199 1.4 24.6 7 49.9 5.7 74.3 16.8 4.1 38 0 54.2 5.6a471 471 0 0 0-6.2-100l-2 .8a34.8 34.8 0 0 1-12.4 3c-3 .3-11.2-.2-11-5 0-.2 6.8.7 7.7.7 2.8 0 5.6 0 8.4-.3 3.1-.4 6.3-1.3 8.8-3l-5.3-34.9a33 33 0 0 1-18.8-1c-8.8-3.6 4.6-3.5 7.5-3.8 3.4-.3 6.8-.7 10-1.6l.3-.1a533 533 0 0 1-6.7-77.3c0-51.2-2.1-101.3-2.1-151.7a25 25 0 0 1-4 2.3c-4.3 1.8-14.8 2.3-18.8-.6-6-4.4 2-4.5 6-5 3.4-.4 7.7-1.3 10.9-2.7 1.3-.5 3.6-2.1 6-3.2 0-17 .4-34 1.3-51 7.2 10.5 15.5 20 20 26.3 12.5 17.6 26.3 34 29 54.9.5 36.8 1.5 73.6 2.4 110.4 4.2 0 8.6 0 11 1.6.4 1.1.6 2.3.4 3.6-3.6.4-7.5 1.1-11.3.8 1.1 45.4 2.2 90.7 2.2 135.5 0 30.7-7.5 75.8 2.1 104.9 5.6.2 12-.3 17.3-1.9 5.3-42.1 6.9-84.6 6.7-127.1h-3.4c-3-.4-6.5-1.5-9.2-2.9-1.7-.9-4.1-1.3-5.5-2.6-2.4-2.3-.3-3.8 2.5-3.7 2.8 0 4.9.4 7.8 0 2.4-.4 5.2-1 7.7-.6-.7-62.8-5-126-6.6-189a7.8 7.8 0 0 1-6.3 3.6c-1.6 0-10.6-1.2-9.7-4 2.7 0 5.2.3 8 0 1.9-.4 4.7-2 6.6-2 .6 0 1 .2 1.3.5-.4-16.2-.6-32.4-.6-48.5a28 28 0 0 1-15.4-.6c-1.4-.5-2.5-1-2.8-1.7.7-.5 1.8-.4 2.8-.1zM62.6 540.8c3.4.1 5.2 1.7 2.2 5.6a11.6 11.6 0 0 1-6.6 3.6c-1.8.2-8.4-.2-9-2.2-1.3-3.5 8-7.1 13.4-7zm-37-182.5c2-1.1 5.4 1.1 7.6 1.5 3.2.5 10.2.8 12.4-2 0-.1 0-.2.2-.3l-.1.2.4.2c0 5.7-18.8 3.6-20.6.4zm22 71c-4.4.5-9.5 1.5-14 .3-2-.5-8.9-4.7-4.4-6.2 4.8 1.5 14.1-.4 18 2.3.4 1.1.6 2.3.4 3.6zM35.6 310.8c2.1-.3 4.4-.2 6.5-.5 1-.2 3-1.3 4-1.2 1.7.2 1.9 2 1.8 3.4-.2 2.2-.8 2.4-2.6 3-2.7.8-6.2.8-9 .8-1.2 0-5.3-.1-6.2-.7-4-2.7 4-4.6 5.5-4.8zM557.4 351.2l-1.7-10.1-.5 1c-1.4 2.5-4.6 3.4-7.1 4.5-3 1.3-6.2 1-9.4 1-1 0-6.2.7-4.7-1.3.7-.9 2.8-.7 3.8-.8 2.8-.4 5.8 0 8.5-.8 2.3-.7 3.8-2 5.5-3.7 1-.9 2-2 2.5-3.2.3-.8 0-2.6.3-3.1l.1-.1c-4.7-34.3-5-68.8.6-104.1 6.4-40.4 3.4-85.2 1.4-126.2-.8-17.7-3.7-35-2.8-53.1.5-8.3 4.7-23.8 1.5-32-3.2-7.9-11.9-10.8-21.3-8-10 2.8-9.9 6-11.7 9.6 7.3 29.1 5.7 69 4.1 100-1.5 30.1 1.6 62.3-1.3 92.6-4.6 46-8.5 90-6.8 137.2.6 18.7 6.8 34.2 6.8 53.2-.1 24 .7 48.3-1.7 71.9-5.3 50.2-13 99.7-10.5 150.8 11.8-1.7 29.2-7.4 40.7-4 1-22 1-43.6.7-65.3-.7 1.5-1.5 1.8-3.4 2.4a54.3 54.3 0 0 1-17.1 2.8c-1 0-2.8.2-3-1-.3-1.1 1.5-1.6 2.3-2 2-1 4.3-1.2 6.6-1.6 3.8-.6 10.3-1 12-5.2 1.2-.7 2-.5 2.6.1-.2-18.8-.5-37.7-.5-56.8.3-48.3 12-97.1 3.5-144.7zm-19.6-120.3c1.7.4 3.2.7 5 .6 1.6-.1 3.3-1 5-.7.2 1.5-1.6 2.3-2.7 2.7-2.1 1-4.3 1-6.5.7-1.6-.2-2.8-1-4.3-1.4-1-.3-2.6-.2-3.2-1.2-2.3-4 6-1 6.7-.7zm-15.2 60.5c-3.9-8 13.2-8.9 11.8-1.8-.9 4-9.9 5.8-11.8 1.8zM539.9 497c-3.3 1.5-12 .6-15.1-.9a3 3 0 0 1 .4-2c3.8 1 10.4.3 14-1.6 2-.5 5.5 2.2.7 4.4zm8.8-64c-1.8 0-12.2-.7-11.3-4 .4-1.6 8-1.8 9.5-2.3 2-.7 5.7-4 7.8-2 3.8 3.5-3 8.2-6 8.3zM670.6 477a10.3 10.3 0 0 1-6 3.4c-1.8.3-3.9-.1-5.5-.6-1.2-.4-4.8-2.5-2-3.7 1-.4 1.3.3 2 .7 1.4.7 3 .8 4.5.1 1.3-.5 5.2-5.2 7-4.5V436c-.2-105.7 9.2-212.3 5.4-318-.8-23.3-5.5-46.2-5.4-69.7 0-14.1 2.6-32-1.6-45-3.3-10.3-22.5 7.2-24 12.2a50.4 50.4 0 0 0-.7 19.4l1.2 9.4c2.3 17.4 8.2 34.7 9.7 52.2 2 21-.6 42-2.2 62.8-3.5 44.3-.1 89.1-1.7 133.5-3.4 92.4.2 185.2-4 277.5-1 22-3.7 43.7-2.6 65.9 14.2-.2 21.8 6.8 25.9-6.8 4.6-15.6 0-39.7 0-56V477zm.6-137.2c-1.1 1-3 1-4.6 1-1.3-.2-2.6-.6-4-.7-1.4-.1-3.1 0-4.5-.6-1-.5-1.6-1.2-.5-1.7.9-.5 3 0 4 .1 1.3.1 2.7.4 4 .2 1.6-.2 3.9-2.3 5.3-1.7 1.5.7 1.4 2.5.3 3.4zm-15-80.2c1.6 0 2.9.5 4.6.4 1.2-.1 14-1.2 10.4 1.7-2.1 1.8-15.6 1-15-2zm.8 97.2c.8-.4 2.1 0 3.1.4 1.2.6 2 1.4 1.6 2.8-.4 1.4-1.9 1.8-3 2.5-2 1-3.8.8-5-1.3-1.5-2.3.9-4.3 3.3-4.4zm-3.3 52c2.2 0 4.8 1.5 7.4 1.1 1.2-.1 2.6-1 3.8-.7.6 3.3-6.5 1.8-8.4 1.7-1.3 0-2.7 0-3.6-1-.6-.9-.3-1.9.8-1.2zM668.4 533c-.2.6-1.2 1-1.7 1.1-1.6.6-3.6.4-5.2.2-1.3 0-5.4.5-5.7-1 1.4-.5 2.7-.1 4.1-.2 2.5-.2 5.2-.3 7.5-1.4.7-.5 1.4.5 1 1.3z" class="st0"/>
</svg>
